# xmcd
#
# Track frame offsets: 
#        150
#        15805
#        40152
#
# Disc length: 813 seconds
#
# Revision: 0
# Processed by: cddbd v1.5.2PL0 Copyright (c) Steve Scherf et al.
# Submitted via: ExactAudioCopy v0.99pb5
#
DISCID=12032b03
DTITLE=Hawkwind - Silver Machine
DYEAR=1972
DGENRE=Bebob
TTITLE0=Silver Machine (radio edit)
TTITLE1=Silver Machine (12 inch mix)
TTITLE2=Silver Machine (single version)
EXTD=
EXTT0=
EXTT1=
EXTT2=
PLAYORDER=
